<mxfile host="app.diagrams.net" modified="2023-04-04T09:27:18.317Z" agent="Mozilla/5.0 (Macintosh; Intel Mac OS X 10_15_7) AppleWebKit/605.1.15 (KHTML, like Gecko) Version/16.3 Safari/605.1.15" etag="hxLhakFerq6y8bZ24eb_" version="21.1.4" type="device">
  <diagram name="Page-1" id="si1JMjdpelB0Ie0ex6EC">
    <mxGraphModel dx="1368" dy="892" grid="1" gridSize="10" guides="1" tooltips="1" connect="1" arrows="1" fold="1" page="1" pageScale="1" pageWidth="1169" pageHeight="827" math="0" shadow="0">
      <root>
        <mxCell id="0" />
        <mxCell id="1" parent="0" />
        <mxCell id="m1vhC1nH43ju4QE_vFgm-11" value="" style="rounded=0;whiteSpace=wrap;html=1;" vertex="1" parent="1">
          <mxGeometry x="80" y="230" width="120" height="80" as="geometry" />
        </mxCell>
        <mxCell id="m1vhC1nH43ju4QE_vFgm-12" value="" style="rounded=0;whiteSpace=wrap;html=1;" vertex="1" parent="1">
          <mxGeometry x="80" y="340" width="120" height="80" as="geometry" />
        </mxCell>
        <mxCell id="m1vhC1nH43ju4QE_vFgm-71" style="edgeStyle=orthogonalEdgeStyle;rounded=0;orthogonalLoop=1;jettySize=auto;html=1;endArrow=none;endFill=0;" edge="1" parent="1" source="m1vhC1nH43ju4QE_vFgm-13">
          <mxGeometry relative="1" as="geometry">
            <mxPoint x="320" y="490" as="targetPoint" />
          </mxGeometry>
        </mxCell>
        <mxCell id="m1vhC1nH43ju4QE_vFgm-13" value="" style="rounded=0;whiteSpace=wrap;html=1;" vertex="1" parent="1">
          <mxGeometry x="80" y="450" width="120" height="80" as="geometry" />
        </mxCell>
        <mxCell id="m1vhC1nH43ju4QE_vFgm-14" value="" style="rounded=0;whiteSpace=wrap;html=1;" vertex="1" parent="1">
          <mxGeometry x="80" y="560" width="120" height="80" as="geometry" />
        </mxCell>
        <mxCell id="m1vhC1nH43ju4QE_vFgm-15" value="" style="rounded=0;whiteSpace=wrap;html=1;" vertex="1" parent="1">
          <mxGeometry x="80" y="670" width="120" height="80" as="geometry" />
        </mxCell>
        <mxCell id="m1vhC1nH43ju4QE_vFgm-16" value="" style="rounded=0;whiteSpace=wrap;html=1;" vertex="1" parent="1">
          <mxGeometry x="80" y="780" width="120" height="80" as="geometry" />
        </mxCell>
        <mxCell id="m1vhC1nH43ju4QE_vFgm-17" value="" style="rounded=0;whiteSpace=wrap;html=1;" vertex="1" parent="1">
          <mxGeometry x="80" y="120" width="120" height="80" as="geometry" />
        </mxCell>
        <mxCell id="m1vhC1nH43ju4QE_vFgm-19" value="House, 2 bedrooms" style="text;html=1;strokeColor=none;fillColor=none;align=center;verticalAlign=middle;whiteSpace=wrap;rounded=0;" vertex="1" parent="1">
          <mxGeometry x="80" y="420" width="120" height="30" as="geometry" />
        </mxCell>
        <mxCell id="m1vhC1nH43ju4QE_vFgm-20" value="House, 4 bedrooms" style="text;html=1;strokeColor=none;fillColor=none;align=center;verticalAlign=middle;whiteSpace=wrap;rounded=0;" vertex="1" parent="1">
          <mxGeometry x="80" y="640" width="120" height="30" as="geometry" />
        </mxCell>
        <mxCell id="m1vhC1nH43ju4QE_vFgm-21" value="House, 5 bedrooms" style="text;html=1;strokeColor=none;fillColor=none;align=center;verticalAlign=middle;whiteSpace=wrap;rounded=0;" vertex="1" parent="1">
          <mxGeometry x="80" y="750" width="120" height="30" as="geometry" />
        </mxCell>
        <mxCell id="m1vhC1nH43ju4QE_vFgm-22" value="Unit, 1 bedroom" style="text;html=1;strokeColor=none;fillColor=none;align=center;verticalAlign=middle;whiteSpace=wrap;rounded=0;" vertex="1" parent="1">
          <mxGeometry x="80" y="90" width="120" height="30" as="geometry" />
        </mxCell>
        <mxCell id="m1vhC1nH43ju4QE_vFgm-23" value="Unit, 2 bedrooms" style="text;html=1;strokeColor=none;fillColor=none;align=center;verticalAlign=middle;whiteSpace=wrap;rounded=0;" vertex="1" parent="1">
          <mxGeometry x="80" y="200" width="120" height="30" as="geometry" />
        </mxCell>
        <mxCell id="m1vhC1nH43ju4QE_vFgm-24" value="Unit, 3 bedrooms" style="text;html=1;strokeColor=none;fillColor=none;align=center;verticalAlign=middle;whiteSpace=wrap;rounded=0;" vertex="1" parent="1">
          <mxGeometry x="80" y="310" width="120" height="30" as="geometry" />
        </mxCell>
        <mxCell id="m1vhC1nH43ju4QE_vFgm-25" value="House, 3 bedrooms" style="text;html=1;strokeColor=none;fillColor=none;align=center;verticalAlign=middle;whiteSpace=wrap;rounded=0;" vertex="1" parent="1">
          <mxGeometry x="80" y="530" width="120" height="30" as="geometry" />
        </mxCell>
        <mxCell id="m1vhC1nH43ju4QE_vFgm-26" value="" style="endArrow=none;html=1;rounded=0;" edge="1" parent="1">
          <mxGeometry width="50" height="50" relative="1" as="geometry">
            <mxPoint x="80" y="180" as="sourcePoint" />
            <mxPoint x="170" y="170" as="targetPoint" />
            <Array as="points">
              <mxPoint x="110" y="160" />
              <mxPoint x="140" y="160" />
            </Array>
          </mxGeometry>
        </mxCell>
        <mxCell id="m1vhC1nH43ju4QE_vFgm-27" value="" style="endArrow=none;html=1;rounded=0;" edge="1" parent="1">
          <mxGeometry width="50" height="50" relative="1" as="geometry">
            <mxPoint x="80" y="288" as="sourcePoint" />
            <mxPoint x="170" y="268" as="targetPoint" />
            <Array as="points">
              <mxPoint x="110" y="288" />
              <mxPoint x="140" y="268" />
            </Array>
          </mxGeometry>
        </mxCell>
        <mxCell id="m1vhC1nH43ju4QE_vFgm-28" value="" style="endArrow=none;html=1;rounded=0;" edge="1" parent="1">
          <mxGeometry width="50" height="50" relative="1" as="geometry">
            <mxPoint x="80" y="730" as="sourcePoint" />
            <mxPoint x="170" y="710" as="targetPoint" />
            <Array as="points">
              <mxPoint x="110" y="710" />
              <mxPoint x="140" y="730" />
            </Array>
          </mxGeometry>
        </mxCell>
        <mxCell id="m1vhC1nH43ju4QE_vFgm-29" value="" style="endArrow=none;html=1;rounded=0;" edge="1" parent="1">
          <mxGeometry width="50" height="50" relative="1" as="geometry">
            <mxPoint x="80" y="397.5" as="sourcePoint" />
            <mxPoint x="170" y="362.5" as="targetPoint" />
            <Array as="points">
              <mxPoint x="110" y="382.5" />
              <mxPoint x="140" y="382.5" />
              <mxPoint x="170" y="362.5" />
            </Array>
          </mxGeometry>
        </mxCell>
        <mxCell id="m1vhC1nH43ju4QE_vFgm-31" value="" style="endArrow=none;html=1;rounded=0;" edge="1" parent="1">
          <mxGeometry width="50" height="50" relative="1" as="geometry">
            <mxPoint x="80" y="495" as="sourcePoint" />
            <mxPoint x="170" y="500" as="targetPoint" />
            <Array as="points">
              <mxPoint x="110" y="470" />
              <mxPoint x="140" y="470" />
              <mxPoint x="160" y="490" />
              <mxPoint x="170" y="500" />
            </Array>
          </mxGeometry>
        </mxCell>
        <mxCell id="m1vhC1nH43ju4QE_vFgm-33" value="" style="endArrow=none;html=1;rounded=0;" edge="1" parent="1">
          <mxGeometry width="50" height="50" relative="1" as="geometry">
            <mxPoint x="80" y="827" as="sourcePoint" />
            <mxPoint x="170" y="797" as="targetPoint" />
            <Array as="points">
              <mxPoint x="110" y="807" />
              <mxPoint x="140" y="797" />
            </Array>
          </mxGeometry>
        </mxCell>
        <mxCell id="m1vhC1nH43ju4QE_vFgm-34" value="" style="endArrow=none;html=1;rounded=0;" edge="1" parent="1">
          <mxGeometry width="50" height="50" relative="1" as="geometry">
            <mxPoint x="80" y="615" as="sourcePoint" />
            <mxPoint x="170" y="590" as="targetPoint" />
            <Array as="points">
              <mxPoint x="110" y="605" />
              <mxPoint x="140" y="590" />
              <mxPoint x="170" y="590" />
            </Array>
          </mxGeometry>
        </mxCell>
        <mxCell id="m1vhC1nH43ju4QE_vFgm-35" value="" style="endArrow=none;dashed=1;html=1;dashPattern=1 3;strokeWidth=2;rounded=0;fillColor=#d80073;strokeColor=#A50040;opacity=75;" edge="1" parent="1">
          <mxGeometry width="50" height="50" relative="1" as="geometry">
            <mxPoint x="110" y="750" as="sourcePoint" />
            <mxPoint x="110" y="710" as="targetPoint" />
          </mxGeometry>
        </mxCell>
        <mxCell id="m1vhC1nH43ju4QE_vFgm-36" value="" style="endArrow=none;dashed=1;html=1;dashPattern=1 3;strokeWidth=2;rounded=0;fillColor=#d80073;strokeColor=#A50040;opacity=75;" edge="1" parent="1">
          <mxGeometry width="50" height="50" relative="1" as="geometry">
            <mxPoint x="110" y="860" as="sourcePoint" />
            <mxPoint x="110" y="810" as="targetPoint" />
          </mxGeometry>
        </mxCell>
        <mxCell id="m1vhC1nH43ju4QE_vFgm-37" value="" style="endArrow=none;dashed=1;html=1;dashPattern=1 3;strokeWidth=2;rounded=0;fillColor=#d80073;strokeColor=#A50040;opacity=75;" edge="1" parent="1">
          <mxGeometry width="50" height="50" relative="1" as="geometry">
            <mxPoint x="139.71" y="860" as="sourcePoint" />
            <mxPoint x="140" y="800" as="targetPoint" />
          </mxGeometry>
        </mxCell>
        <mxCell id="m1vhC1nH43ju4QE_vFgm-38" value="" style="endArrow=none;dashed=1;html=1;dashPattern=1 3;strokeWidth=2;rounded=0;fillColor=#d80073;strokeColor=#A50040;opacity=75;" edge="1" parent="1">
          <mxGeometry width="50" height="50" relative="1" as="geometry">
            <mxPoint x="170" y="860" as="sourcePoint" />
            <mxPoint x="170.29" y="800" as="targetPoint" />
          </mxGeometry>
        </mxCell>
        <mxCell id="m1vhC1nH43ju4QE_vFgm-39" value="" style="endArrow=none;dashed=1;html=1;dashPattern=1 3;strokeWidth=2;rounded=0;fillColor=#d80073;strokeColor=#A50040;opacity=75;" edge="1" parent="1">
          <mxGeometry width="50" height="50" relative="1" as="geometry">
            <mxPoint x="139.71" y="640" as="sourcePoint" />
            <mxPoint x="140" y="590" as="targetPoint" />
          </mxGeometry>
        </mxCell>
        <mxCell id="m1vhC1nH43ju4QE_vFgm-40" value="" style="endArrow=none;dashed=1;html=1;dashPattern=1 3;strokeWidth=2;rounded=0;fillColor=#d80073;strokeColor=#A50040;opacity=75;" edge="1" parent="1">
          <mxGeometry width="50" height="50" relative="1" as="geometry">
            <mxPoint x="110" y="640" as="sourcePoint" />
            <mxPoint x="110" y="600" as="targetPoint" />
          </mxGeometry>
        </mxCell>
        <mxCell id="m1vhC1nH43ju4QE_vFgm-41" value="" style="endArrow=none;dashed=1;html=1;dashPattern=1 3;strokeWidth=2;rounded=0;fillColor=#d80073;strokeColor=#A50040;opacity=75;" edge="1" parent="1">
          <mxGeometry width="50" height="50" relative="1" as="geometry">
            <mxPoint x="170" y="750" as="sourcePoint" />
            <mxPoint x="170" y="710" as="targetPoint" />
          </mxGeometry>
        </mxCell>
        <mxCell id="m1vhC1nH43ju4QE_vFgm-42" value="" style="endArrow=none;dashed=1;html=1;dashPattern=1 3;strokeWidth=2;rounded=0;fillColor=#d80073;strokeColor=#A50040;opacity=75;" edge="1" parent="1">
          <mxGeometry width="50" height="50" relative="1" as="geometry">
            <mxPoint x="139.71" y="750" as="sourcePoint" />
            <mxPoint x="140" y="730" as="targetPoint" />
          </mxGeometry>
        </mxCell>
        <mxCell id="m1vhC1nH43ju4QE_vFgm-43" value="" style="endArrow=none;dashed=1;html=1;dashPattern=1 3;strokeWidth=2;rounded=0;fillColor=#d80073;strokeColor=#A50040;opacity=75;" edge="1" parent="1">
          <mxGeometry width="50" height="50" relative="1" as="geometry">
            <mxPoint x="110" y="530" as="sourcePoint" />
            <mxPoint x="110" y="470" as="targetPoint" />
          </mxGeometry>
        </mxCell>
        <mxCell id="m1vhC1nH43ju4QE_vFgm-44" value="" style="endArrow=none;dashed=1;html=1;dashPattern=1 3;strokeWidth=2;rounded=0;fillColor=#d80073;strokeColor=#A50040;opacity=75;" edge="1" parent="1">
          <mxGeometry width="50" height="50" relative="1" as="geometry">
            <mxPoint x="139.71" y="530" as="sourcePoint" />
            <mxPoint x="139.71" y="470" as="targetPoint" />
          </mxGeometry>
        </mxCell>
        <mxCell id="m1vhC1nH43ju4QE_vFgm-45" value="" style="endArrow=none;dashed=1;html=1;dashPattern=1 3;strokeWidth=2;rounded=0;fillColor=#d80073;strokeColor=#A50040;opacity=75;" edge="1" parent="1">
          <mxGeometry width="50" height="50" relative="1" as="geometry">
            <mxPoint x="170" y="530" as="sourcePoint" />
            <mxPoint x="170" y="500" as="targetPoint" />
          </mxGeometry>
        </mxCell>
        <mxCell id="m1vhC1nH43ju4QE_vFgm-46" value="" style="endArrow=none;dashed=1;html=1;dashPattern=1 3;strokeWidth=2;rounded=0;fillColor=#d80073;strokeColor=#A50040;opacity=75;" edge="1" parent="1">
          <mxGeometry width="50" height="50" relative="1" as="geometry">
            <mxPoint x="110" y="420" as="sourcePoint" />
            <mxPoint x="110" y="380" as="targetPoint" />
          </mxGeometry>
        </mxCell>
        <mxCell id="m1vhC1nH43ju4QE_vFgm-47" value="" style="endArrow=none;dashed=1;html=1;dashPattern=1 3;strokeWidth=2;rounded=0;fillColor=#d80073;strokeColor=#A50040;opacity=75;" edge="1" parent="1">
          <mxGeometry width="50" height="50" relative="1" as="geometry">
            <mxPoint x="139.71" y="420" as="sourcePoint" />
            <mxPoint x="139.71" y="380" as="targetPoint" />
          </mxGeometry>
        </mxCell>
        <mxCell id="m1vhC1nH43ju4QE_vFgm-48" value="" style="endArrow=none;dashed=1;html=1;dashPattern=1 3;strokeWidth=2;rounded=0;fillColor=#d80073;strokeColor=#A50040;opacity=75;" edge="1" parent="1">
          <mxGeometry width="50" height="50" relative="1" as="geometry">
            <mxPoint x="170" y="420" as="sourcePoint" />
            <mxPoint x="170" y="360" as="targetPoint" />
          </mxGeometry>
        </mxCell>
        <mxCell id="m1vhC1nH43ju4QE_vFgm-49" value="" style="endArrow=none;dashed=1;html=1;dashPattern=1 3;strokeWidth=2;rounded=0;fillColor=#d80073;strokeColor=#A50040;opacity=75;" edge="1" parent="1">
          <mxGeometry width="50" height="50" relative="1" as="geometry">
            <mxPoint x="110" y="310" as="sourcePoint" />
            <mxPoint x="110" y="290" as="targetPoint" />
          </mxGeometry>
        </mxCell>
        <mxCell id="m1vhC1nH43ju4QE_vFgm-51" value="" style="endArrow=none;dashed=1;html=1;dashPattern=1 3;strokeWidth=2;rounded=0;fillColor=#d80073;strokeColor=#A50040;opacity=75;" edge="1" parent="1">
          <mxGeometry width="50" height="50" relative="1" as="geometry">
            <mxPoint x="170" y="310" as="sourcePoint" />
            <mxPoint x="170" y="270" as="targetPoint" />
          </mxGeometry>
        </mxCell>
        <mxCell id="m1vhC1nH43ju4QE_vFgm-53" value="" style="endArrow=none;dashed=1;html=1;dashPattern=1 3;strokeWidth=2;rounded=0;fillColor=#d80073;strokeColor=#A50040;opacity=75;" edge="1" parent="1">
          <mxGeometry width="50" height="50" relative="1" as="geometry">
            <mxPoint x="139.71" y="310" as="sourcePoint" />
            <mxPoint x="139.71" y="270" as="targetPoint" />
          </mxGeometry>
        </mxCell>
        <mxCell id="m1vhC1nH43ju4QE_vFgm-54" value="" style="endArrow=none;dashed=1;html=1;dashPattern=1 3;strokeWidth=2;rounded=0;fillColor=#d80073;strokeColor=#A50040;opacity=75;" edge="1" parent="1">
          <mxGeometry width="50" height="50" relative="1" as="geometry">
            <mxPoint x="110" y="200" as="sourcePoint" />
            <mxPoint x="110" y="160" as="targetPoint" />
          </mxGeometry>
        </mxCell>
        <mxCell id="m1vhC1nH43ju4QE_vFgm-55" value="" style="endArrow=none;dashed=1;html=1;dashPattern=1 3;strokeWidth=2;rounded=0;fillColor=#d80073;strokeColor=#A50040;opacity=75;" edge="1" parent="1">
          <mxGeometry width="50" height="50" relative="1" as="geometry">
            <mxPoint x="139.71" y="200" as="sourcePoint" />
            <mxPoint x="139.71" y="160" as="targetPoint" />
          </mxGeometry>
        </mxCell>
        <mxCell id="m1vhC1nH43ju4QE_vFgm-56" value="" style="endArrow=none;dashed=1;html=1;dashPattern=1 3;strokeWidth=2;rounded=0;fillColor=#d80073;strokeColor=#A50040;opacity=75;" edge="1" parent="1">
          <mxGeometry width="50" height="50" relative="1" as="geometry">
            <mxPoint x="170" y="200" as="sourcePoint" />
            <mxPoint x="170" y="170" as="targetPoint" />
          </mxGeometry>
        </mxCell>
        <mxCell id="m1vhC1nH43ju4QE_vFgm-57" value="t-1" style="text;html=1;strokeColor=none;fillColor=none;align=center;verticalAlign=middle;whiteSpace=wrap;rounded=0;fontSize=15;fontStyle=1" vertex="1" parent="1">
          <mxGeometry x="155" y="860" width="30" height="30" as="geometry" />
        </mxCell>
        <mxCell id="m1vhC1nH43ju4QE_vFgm-58" value="t-2" style="text;html=1;strokeColor=none;fillColor=none;align=center;verticalAlign=middle;whiteSpace=wrap;rounded=0;fontSize=15;fontStyle=1" vertex="1" parent="1">
          <mxGeometry x="125" y="860" width="30" height="30" as="geometry" />
        </mxCell>
        <mxCell id="m1vhC1nH43ju4QE_vFgm-59" value="t-3" style="text;html=1;strokeColor=none;fillColor=none;align=center;verticalAlign=middle;whiteSpace=wrap;rounded=0;fontSize=15;fontStyle=1" vertex="1" parent="1">
          <mxGeometry x="95" y="860" width="30" height="30" as="geometry" />
        </mxCell>
        <mxCell id="m1vhC1nH43ju4QE_vFgm-61" value="Price" style="text;html=1;strokeColor=none;fillColor=none;align=center;verticalAlign=middle;whiteSpace=wrap;rounded=0;rotation=-90;fontSize=15;fontStyle=1" vertex="1" parent="1">
          <mxGeometry x="30" y="805" width="60" height="30" as="geometry" />
        </mxCell>
        <mxCell id="m1vhC1nH43ju4QE_vFgm-62" value="Price" style="text;html=1;strokeColor=none;fillColor=none;align=center;verticalAlign=middle;whiteSpace=wrap;rounded=0;rotation=-90;fontSize=15;fontStyle=1" vertex="1" parent="1">
          <mxGeometry x="30" y="695" width="60" height="30" as="geometry" />
        </mxCell>
        <mxCell id="m1vhC1nH43ju4QE_vFgm-63" value="Price" style="text;html=1;strokeColor=none;fillColor=none;align=center;verticalAlign=middle;whiteSpace=wrap;rounded=0;rotation=-90;fontSize=15;fontStyle=1" vertex="1" parent="1">
          <mxGeometry x="30" y="585" width="60" height="30" as="geometry" />
        </mxCell>
        <mxCell id="m1vhC1nH43ju4QE_vFgm-64" value="Price" style="text;html=1;strokeColor=none;fillColor=none;align=center;verticalAlign=middle;whiteSpace=wrap;rounded=0;rotation=-90;fontSize=15;fontStyle=1" vertex="1" parent="1">
          <mxGeometry x="30" y="475" width="60" height="30" as="geometry" />
        </mxCell>
        <mxCell id="m1vhC1nH43ju4QE_vFgm-65" value="Price" style="text;html=1;strokeColor=none;fillColor=none;align=center;verticalAlign=middle;whiteSpace=wrap;rounded=0;rotation=-90;fontSize=15;fontStyle=1" vertex="1" parent="1">
          <mxGeometry x="30" y="365" width="60" height="30" as="geometry" />
        </mxCell>
        <mxCell id="m1vhC1nH43ju4QE_vFgm-66" value="Price" style="text;html=1;strokeColor=none;fillColor=none;align=center;verticalAlign=middle;whiteSpace=wrap;rounded=0;rotation=-90;fontSize=15;fontStyle=1" vertex="1" parent="1">
          <mxGeometry x="30" y="255" width="60" height="30" as="geometry" />
        </mxCell>
        <mxCell id="m1vhC1nH43ju4QE_vFgm-67" value="Price" style="text;html=1;strokeColor=none;fillColor=none;align=center;verticalAlign=middle;whiteSpace=wrap;rounded=0;rotation=-90;fontSize=15;fontStyle=1" vertex="1" parent="1">
          <mxGeometry x="30" y="145" width="60" height="30" as="geometry" />
        </mxCell>
        <mxCell id="m1vhC1nH43ju4QE_vFgm-68" value="" style="endArrow=none;dashed=1;html=1;dashPattern=1 3;strokeWidth=2;rounded=0;fillColor=#d80073;strokeColor=#A50040;opacity=75;" edge="1" parent="1">
          <mxGeometry width="50" height="50" relative="1" as="geometry">
            <mxPoint x="169.8" y="640" as="sourcePoint" />
            <mxPoint x="170.09" y="590" as="targetPoint" />
          </mxGeometry>
        </mxCell>
        <mxCell id="m1vhC1nH43ju4QE_vFgm-69" value="..." style="text;html=1;strokeColor=none;fillColor=none;align=center;verticalAlign=middle;whiteSpace=wrap;rounded=0;fontSize=15;fontStyle=1" vertex="1" parent="1">
          <mxGeometry x="65" y="860" width="30" height="30" as="geometry" />
        </mxCell>
        <mxCell id="m1vhC1nH43ju4QE_vFgm-73" value="" style="endArrow=none;html=1;rounded=0;endFill=0;" edge="1" parent="1">
          <mxGeometry width="50" height="50" relative="1" as="geometry">
            <mxPoint x="200" y="390" as="sourcePoint" />
            <mxPoint x="320" y="490" as="targetPoint" />
          </mxGeometry>
        </mxCell>
        <mxCell id="m1vhC1nH43ju4QE_vFgm-74" value="" style="endArrow=none;html=1;rounded=0;endFill=0;" edge="1" parent="1">
          <mxGeometry width="50" height="50" relative="1" as="geometry">
            <mxPoint x="200" y="275" as="sourcePoint" />
            <mxPoint x="320" y="490" as="targetPoint" />
          </mxGeometry>
        </mxCell>
        <mxCell id="m1vhC1nH43ju4QE_vFgm-75" value="" style="endArrow=none;html=1;rounded=0;endFill=0;" edge="1" parent="1">
          <mxGeometry width="50" height="50" relative="1" as="geometry">
            <mxPoint x="200" y="160" as="sourcePoint" />
            <mxPoint x="320" y="490" as="targetPoint" />
          </mxGeometry>
        </mxCell>
        <mxCell id="m1vhC1nH43ju4QE_vFgm-76" value="" style="endArrow=none;html=1;rounded=0;endFill=0;" edge="1" parent="1">
          <mxGeometry width="50" height="50" relative="1" as="geometry">
            <mxPoint x="200" y="600" as="sourcePoint" />
            <mxPoint x="320" y="490" as="targetPoint" />
          </mxGeometry>
        </mxCell>
        <mxCell id="m1vhC1nH43ju4QE_vFgm-77" value="" style="endArrow=none;html=1;rounded=0;endFill=0;" edge="1" parent="1">
          <mxGeometry width="50" height="50" relative="1" as="geometry">
            <mxPoint x="200" y="715" as="sourcePoint" />
            <mxPoint x="320" y="490" as="targetPoint" />
          </mxGeometry>
        </mxCell>
        <mxCell id="m1vhC1nH43ju4QE_vFgm-78" value="" style="endArrow=none;html=1;rounded=0;endFill=0;" edge="1" parent="1">
          <mxGeometry width="50" height="50" relative="1" as="geometry">
            <mxPoint x="200" y="827" as="sourcePoint" />
            <mxPoint x="320" y="490" as="targetPoint" />
          </mxGeometry>
        </mxCell>
        <mxCell id="m1vhC1nH43ju4QE_vFgm-81" value="&amp;nbsp;House, 3 bedrooms" style="shape=note;whiteSpace=wrap;html=1;backgroundOutline=1;darkOpacity=0.05;fillColor=#f8cecc;strokeColor=#b85450;opacity=75;" vertex="1" parent="1">
          <mxGeometry x="390" y="420" width="90" height="120" as="geometry" />
        </mxCell>
        <mxCell id="m1vhC1nH43ju4QE_vFgm-83" value="" style="shape=flexArrow;endArrow=classic;html=1;rounded=0;fillColor=#CCE5FF;strokeColor=#006EAF;" edge="1" parent="1">
          <mxGeometry width="50" height="50" relative="1" as="geometry">
            <mxPoint x="330" y="489.62" as="sourcePoint" />
            <mxPoint x="380" y="489.62" as="targetPoint" />
          </mxGeometry>
        </mxCell>
        <mxCell id="m1vhC1nH43ju4QE_vFgm-84" value="&lt;b&gt;&lt;font style=&quot;font-size: 14px;&quot;&gt;Price&lt;/font&gt;&lt;/b&gt;" style="text;html=1;strokeColor=none;fillColor=none;align=center;verticalAlign=middle;whiteSpace=wrap;rounded=0;" vertex="1" parent="1">
          <mxGeometry x="399" y="420" width="40" height="30" as="geometry" />
        </mxCell>
      </root>
    </mxGraphModel>
  </diagram>
</mxfile>
